<svg xmlns="http://www.w3.org/2000/svg" height="16" width="16" viewBox="0 0 16 16">
    <circle cx="8" cy="8" r="6.5" fill="#43454A" stroke="#CED0D6"/>
    <path fill="#CED0D6" d="M 8,2 A 6,6 0 0 0 3.757,3.757 H 5 A 4.2431,6 0 0 1 8,2 Z"/>
    <path fill="#CED0D6" d="M 8,2 V 3.757 H 11 A 4.2431,6 0 0 0 8,2 Z"/>
    <path fill="#CED0D6" d="M 5,3.757 A 4.2431,6 0 0 0 3.757,8 H 8 V 3.757 H 11 Z"/>
    <path fill="#CED0D6" d="m 11,3.757 a 4.2431,6 0 0 1 1.243,4.2431 H 14 A 6,6 0 0 0 12.243,3.757 Z"/>
    <path fill="#CED0D6" d="M 2,8 A 6,6 0 0 0 3.757,12.243 H 5 A 4.2431,6 0 0 1 3.757,8 h 1.757 z"/>
    <path fill="#CED0D6" d="M 8,8 V 12.243 H 11 a 4.2431,6 0 0 0 1.243,-4.2431 z"/>
    <path fill="#CED0D6" d="m 5,12.243 a 4.2431,6 0 0 0 3,1.757143 v -1.757143 z"/>
    <path fill="#CED0D6" d="M 11,12.243 A 4.2431,6 0 0 1 8,14 6,6 0 0 0 12.243,12.243 Z"/>
</svg>
