<svg xmlns="http://www.w3.org/2000/svg" height="13" width="13" viewBox="0 0 16 16">
    <path fill="#afb1b3" d="m 8,1 a 7,7 0 0 0 -4.95,2.05 h 1.45 a 4.95,7 0 0 1 3.5,-2.05 z"/>
    <path fill="#afb1b3" d="m 8,1 v 2.05 h 3.5 a 4.95,7 0 0 0 -3.5,-2.05 z"/>

    <path fill="#afb1b3" d="m 4.5,3.05 a 4.95,7 0 0 0 -1.45,4.95 h 4.95 v -4.95 h 3.5 z"/>
    <path fill="#afb1b3" d="m 11.5,3.05 a 4.95,7 0 0 1 1.45,4.95 h 2.05 a 7,7 0 0 0 -2.05,-4.95 h -1.45 z"/>

    <path fill="#afb1b3" d="m 1,8 a 7,7 0 0 0 2.05,4.95 h 1.45 a 4.95,7 0 0 1 -1.45,-4.95 h 2.05 z"/>
    <path fill="#afb1b3" d="m 8,8 v 4.95 h 3.5 a 4.95,7 0 0 0 1.45,-4.95 h -4.95 z"/>

    <path fill="#afb1b3" d="m 4.5,12.95 a 4.95,7 0 0 0 3.5,2.05 v -2.05 h -3.5 z"/>
    <path fill="#afb1b3" d="m 11.5,12.95 a 4.95,7 0 0 1 -3.5,2.05 a 7,7 0 0 0 4.95,-2.05 h -1.45 z"/>

    <path fill="#afb1b3" d="m 8,0 a 8,8 0 0 1 0,16 a 8,8 0 0 1 0,-16 z m 0,1 a 7,7 0 0 0 0,14 a 7,7 0 0 0 0,-14 z"/>
</svg>
