# Blender v3.0.0 OBJ File: ''
# www.blender.org
o Cylinder
v 1.000000 0.000000 -1.000000
v 1.000000 0.000000 1.000000
v 0.995185 -0.098017 -1.000000
v 0.995185 -0.098017 1.000000
v 0.980785 -0.195090 -1.000000
v 0.980785 -0.195090 1.000000
v 0.956940 -0.290285 -1.000000
v 0.956940 -0.290285 1.000000
v 0.923880 -0.382683 -1.000000
v 0.923880 -0.382683 1.000000
v 0.881921 -0.471397 -1.000000
v 0.881921 -0.471397 1.000000
v 0.831470 -0.555570 -1.000000
v 0.831470 -0.555570 1.000000
v 0.773010 -0.634393 -1.000000
v 0.773010 -0.634393 1.000000
v 0.707107 -0.707107 -1.000000
v 0.707107 -0.707107 1.000000
v 0.634393 -0.773010 -1.000000
v 0.634393 -0.773010 1.000000
v 0.555570 -0.831470 -1.000000
v 0.555570 -0.831470 1.000000
v 0.471397 -0.881921 -1.000000
v 0.471397 -0.881921 1.000000
v 0.382683 -0.923880 -1.000000
v 0.382683 -0.923880 1.000000
v 0.290285 -0.956940 -1.000000
v 0.290285 -0.956940 1.000000
v 0.195090 -0.980785 -1.000000
v 0.195090 -0.980785 1.000000
v 0.098017 -0.995185 -1.000000
v 0.098017 -0.995185 1.000000
v -0.000000 -1.000000 -1.000000
v -0.000000 -1.000000 1.000000
v -0.098017 -0.995185 -1.000000
v -0.098017 -0.995185 1.000000
v -0.195090 -0.980785 -1.000000
v -0.195090 -0.980785 1.000000
v -0.290285 -0.956940 -1.000000
v -0.290285 -0.956940 1.000000
v -0.382683 -0.923880 -1.000000
v -0.382683 -0.923880 1.000000
v -0.471397 -0.881921 -1.000000
v -0.471397 -0.881921 1.000000
v -0.555570 -0.831470 -1.000000
v -0.555570 -0.831470 1.000000
v -0.634393 -0.773010 -1.000000
v -0.634393 -0.773010 1.000000
v -0.707107 -0.707107 -1.000000
v -0.707107 -0.707107 1.000000
v -0.773010 -0.634393 -1.000000
v -0.773010 -0.634393 1.000000
v -0.831470 -0.555570 -1.000000
v -0.831470 -0.555570 1.000000
v -0.881921 -0.471397 -1.000000
v -0.881921 -0.471397 1.000000
v -0.923880 -0.382683 -1.000000
v -0.923880 -0.382683 1.000000
v -0.956940 -0.290285 -1.000000
v -0.956940 -0.290285 1.000000
v -0.980785 -0.195090 -1.000000
v -0.980785 -0.195090 1.000000
v -0.995185 -0.098017 -1.000000
v -0.995185 -0.098017 1.000000
v -1.000000 0.000000 -1.000000
v -1.000000 0.000000 1.000000
v -0.995185 0.098017 -1.000000
v -0.995185 0.098017 1.000000
v -0.980785 0.195090 -1.000000
v -0.980785 0.195090 1.000000
v -0.956940 0.290285 -1.000000
v -0.956940 0.290285 1.000000
v -0.923880 0.382683 -1.000000
v -0.923880 0.382683 1.000000
v -0.881921 0.471397 -1.000000
v -0.881921 0.471397 1.000000
v -0.831470 0.555570 -1.000000
v -0.831470 0.555570 1.000000
v -0.773011 0.634393 -1.000000
v -0.773011 0.634393 1.000000
v -0.707107 0.707107 -1.000000
v -0.707107 0.707107 1.000000
v -0.634393 0.773010 -1.000000
v -0.634393 0.773010 1.000000
v -0.555570 0.831469 -1.000000
v -0.555570 0.831469 1.000000
v -0.471397 0.881921 -1.000000
v -0.471397 0.881921 1.000000
v -0.382684 0.923880 -1.000000
v -0.382684 0.923880 1.000000
v -0.290285 0.956940 -1.000000
v -0.290285 0.956940 1.000000
v -0.195090 0.980785 -1.000000
v -0.195090 0.980785 1.000000
v -0.098017 0.995185 -1.000000
v -0.098017 0.995185 1.000000
v 0.000000 1.000000 -1.000000
v 0.000000 1.000000 1.000000
v 0.098017 0.995185 -1.000000
v 0.098017 0.995185 1.000000
v 0.195090 0.980785 -1.000000
v 0.195090 0.980785 1.000000
v 0.290285 0.956940 -1.000000
v 0.290285 0.956940 1.000000
v 0.382684 0.923879 -1.000000
v 0.382684 0.923879 1.000000
v 0.471397 0.881921 -1.000000
v 0.471397 0.881921 1.000000
v 0.555570 0.831470 -1.000000
v 0.555570 0.831470 1.000000
v 0.634393 0.773010 -1.000000
v 0.634393 0.773010 1.000000
v 0.707107 0.707107 -1.000000
v 0.707107 0.707107 1.000000
v 0.773011 0.634393 -1.000000
v 0.773011 0.634393 1.000000
v 0.831470 0.555570 -1.000000
v 0.831470 0.555570 1.000000
v 0.881921 0.471397 -1.000000
v 0.881921 0.471397 1.000000
v 0.923880 0.382683 -1.000000
v 0.923880 0.382683 1.000000
v 0.956940 0.290285 -1.000000
v 0.956940 0.290285 1.000000
v 0.980785 0.195090 -1.000000
v 0.980785 0.195090 1.000000
v 0.995185 0.098017 -1.000000
v 0.995185 0.098017 1.000000
vt 1.000000 0.000000
vt 1.000000 1.000000
vt 0.984375 1.000000
vt 0.984375 0.000000
vt 0.968750 1.000000
vt 0.968750 0.000000
vt 0.953125 1.000000
vt 0.953125 0.000000
vt 0.937500 1.000000
vt 0.937500 0.000000
vt 0.921875 1.000000
vt 0.921875 0.000000
vt 0.906250 1.000000
vt 0.906250 0.000000
vt 0.890625 1.000000
vt 0.890625 0.000000
vt 0.875000 1.000000
vt 0.875000 0.000000
vt 0.859375 1.000000
vt 0.859375 0.000000
vt 0.843750 1.000000
vt 0.843750 0.000000
vt 0.828125 1.000000
vt 0.828125 0.000000
vt 0.812500 1.000000
vt 0.812500 0.000000
vt 0.796875 1.000000
vt 0.796875 0.000000
vt 0.781250 1.000000
vt 0.781250 0.000000
vt 0.765625 1.000000
vt 0.765625 0.000000
vt 0.750000 1.000000
vt 0.750000 0.000000
vt 0.734375 1.000000
vt 0.734375 0.000000
vt 0.718750 1.000000
vt 0.718750 0.000000
vt 0.703125 1.000000
vt 0.703125 0.000000
vt 0.687500 1.000000
vt 0.687500 0.000000
vt 0.671875 1.000000
vt 0.671875 0.000000
vt 0.656250 1.000000
vt 0.656250 0.000000
vt 0.640625 1.000000
vt 0.640625 0.000000
vt 0.625000 1.000000
vt 0.625000 0.000000
vt 0.609375 1.000000
vt 0.609375 0.000000
vt 0.593750 1.000000
vt 0.593750 0.000000
vt 0.578125 1.000000
vt 0.578125 0.000000
vt 0.562500 1.000000
vt 0.562500 0.000000
vt 0.546875 1.000000
vt 0.546875 0.000000
vt 0.531250 1.000000
vt 0.531250 0.000000
vt 0.515625 1.000000
vt 0.515625 0.000000
vt 0.500000 1.000000
vt 0.500000 0.000000
vt 0.484375 1.000000
vt 0.484375 0.000000
vt 0.468750 1.000000
vt 0.468750 0.000000
vt 0.453125 1.000000
vt 0.453125 0.000000
vt 0.437500 1.000000
vt 0.437500 0.000000
vt 0.421875 1.000000
vt 0.421875 0.000000
vt 0.406250 1.000000
vt 0.406250 0.000000
vt 0.390625 1.000000
vt 0.390625 0.000000
vt 0.375000 1.000000
vt 0.375000 0.000000
vt 0.359375 1.000000
vt 0.359375 0.000000
vt 0.343750 1.000000
vt 0.343750 0.000000
vt 0.328125 1.000000
vt 0.328125 0.000000
vt 0.312500 1.000000
vt 0.312500 0.000000
vt 0.296875 1.000000
vt 0.296875 0.000000
vt 0.281250 1.000000
vt 0.281250 0.000000
vt 0.265625 1.000000
vt 0.265625 0.000000
vt 0.250000 1.000000
vt 0.250000 0.000000
vt 0.234375 1.000000
vt 0.234375 0.000000
vt 0.218750 1.000000
vt 0.218750 0.000000
vt 0.203125 1.000000
vt 0.203125 0.000000
vt 0.187500 1.000000
vt 0.187500 0.000000
vt 0.171875 1.000000
vt 0.171875 0.000000
vt 0.156250 1.000000
vt 0.156250 0.000000
vt 0.140625 1.000000
vt 0.140625 0.000000
vt 0.125000 1.000000
vt 0.125000 0.000000
vt 0.109375 1.000000
vt 0.109375 0.000000
vt 0.093750 1.000000
vt 0.093750 0.000000
vt 0.078125 1.000000
vt 0.078125 0.000000
vt 0.062500 1.000000
vt 0.062500 0.000000
vt 0.046875 1.000000
vt 0.046875 0.000000
vt 0.031250 1.000000
vt 0.031250 0.000000
vt 0.475441 0.999900
vt 0.426560 0.995086
vt 0.378387 0.985503
vt 0.331385 0.971246
vt 0.286008 0.952449
vt 0.242691 0.929296
vt 0.201851 0.902008
vt 0.163883 0.870848
vt 0.129151 0.836117
vt 0.097992 0.798148
vt 0.070703 0.757308
vt 0.047550 0.713992
vt 0.028755 0.668615
vt 0.014496 0.621612
vt 0.004914 0.573437
vt 0.000100 0.524558
vt 0.000100 0.475440
vt 0.004914 0.426560
vt 0.014497 0.378387
vt 0.028755 0.331385
vt 0.047551 0.286007
vt 0.070704 0.242691
vt 0.097993 0.201850
vt 0.129152 0.163882
vt 0.163884 0.129150
vt 0.201851 0.097992
vt 0.242691 0.070704
vt 0.286008 0.047550
vt 0.331385 0.028755
vt 0.378388 0.014496
vt 0.426561 0.004914
vt 0.475442 0.000100
vt 0.524559 0.000100
vt 0.573440 0.004914
vt 0.621611 0.014496
vt 0.668615 0.028755
vt 0.713993 0.047551
vt 0.757310 0.070705
vt 0.798149 0.097992
vt 0.836118 0.129152
vt 0.870850 0.163885
vt 0.902008 0.201851
vt 0.929296 0.242691
vt 0.952449 0.286008
vt 0.971246 0.331386
vt 0.985504 0.378388
vt 0.995086 0.426561
vt 0.999900 0.475442
vt 0.999900 0.524559
vt 0.995086 0.573439
vt 0.985503 0.621612
vt 0.971245 0.668615
vt 0.952450 0.713992
vt 0.929296 0.757310
vt 0.902007 0.798150
vt 0.870848 0.836118
vt 0.836117 0.870848
vt 0.798148 0.902008
vt 0.757309 0.929296
vt 0.713992 0.952450
vt 0.668615 0.971245
vt 0.621612 0.985503
vt 0.573438 0.995086
vt 0.524558 0.999900
vt 0.015625 1.000000
vt 0.015625 0.000000
vt 0.000000 1.000000
vt 0.000000 0.000000
vt 0.378387 0.014497
vt 0.426561 0.004914
vt 0.475442 0.000100
vt 0.524559 0.000100
vt 0.573442 0.004915
vt 0.621614 0.014497
vt 0.668615 0.028755
vt 0.713993 0.047551
vt 0.757310 0.070704
vt 0.798149 0.097992
vt 0.836117 0.129151
vt 0.870849 0.163883
vt 0.902008 0.201851
vt 0.929296 0.242691
vt 0.952450 0.286009
vt 0.971246 0.331386
vt 0.985503 0.378386
vt 0.995086 0.426560
vt 0.999900 0.475441
vt 0.999900 0.524559
vt 0.995086 0.573438
vt 0.985503 0.621612
vt 0.971245 0.668615
vt 0.952449 0.713993
vt 0.929295 0.757310
vt 0.902007 0.798150
vt 0.870848 0.836117
vt 0.836117 0.870849
vt 0.798149 0.902008
vt 0.757310 0.929296
vt 0.713992 0.952449
vt 0.668614 0.971246
vt 0.621611 0.985504
vt 0.573439 0.995086
vt 0.524559 0.999900
vt 0.475441 0.999900
vt 0.426560 0.995085
vt 0.378387 0.985503
vt 0.331385 0.971245
vt 0.286007 0.952449
vt 0.242690 0.929296
vt 0.201850 0.902008
vt 0.163883 0.870848
vt 0.129152 0.836117
vt 0.097991 0.798147
vt 0.070704 0.757310
vt 0.047550 0.713991
vt 0.028754 0.668614
vt 0.014496 0.621611
vt 0.004914 0.573439
vt 0.000100 0.524560
vt 0.000100 0.475441
vt 0.004914 0.426560
vt 0.014497 0.378388
vt 0.028755 0.331385
vt 0.047551 0.286007
vt 0.070705 0.242690
vt 0.097992 0.201851
vt 0.129153 0.163881
vt 0.163883 0.129152
vt 0.201852 0.097992
vt 0.242690 0.070705
vt 0.286008 0.047550
vt 0.331386 0.028754
vn 1.0000 -0.0000 0.0000
vn 0.9952 -0.0980 0.0000
vn 0.9808 -0.1951 0.0000
vn 0.9569 -0.2903 0.0000
vn 0.9239 -0.3827 0.0000
vn 0.8819 -0.4714 0.0000
vn 0.8315 -0.5556 0.0000
vn 0.7730 -0.6344 0.0000
vn 0.7071 -0.7071 0.0000
vn 0.6344 -0.7730 0.0000
vn 0.5556 -0.8315 0.0000
vn 0.4714 -0.8819 0.0000
vn 0.3827 -0.9239 0.0000
vn 0.2903 -0.9569 0.0000
vn 0.1951 -0.9808 0.0000
vn 0.0980 -0.9952 0.0000
vn -0.0000 -1.0000 0.0000
vn -0.0980 -0.9952 0.0000
vn -0.1951 -0.9808 0.0000
vn -0.2903 -0.9569 0.0000
vn -0.3827 -0.9239 0.0000
vn -0.4714 -0.8819 0.0000
vn -0.5556 -0.8315 0.0000
vn -0.6344 -0.7730 0.0000
vn -0.7071 -0.7071 0.0000
vn -0.7730 -0.6344 0.0000
vn -0.8315 -0.5556 0.0000
vn -0.8819 -0.4714 0.0000
vn -0.9239 -0.3827 0.0000
vn -0.9569 -0.2903 0.0000
vn -0.9808 -0.1951 0.0000
vn -0.9952 -0.0980 0.0000
vn -1.0000 0.0000 0.0000
vn -0.9952 0.0980 0.0000
vn -0.9808 0.1951 0.0000
vn -0.9569 0.2903 0.0000
vn -0.9239 0.3827 0.0000
vn -0.8819 0.4714 0.0000
vn -0.8315 0.5556 0.0000
vn -0.7730 0.6344 0.0000
vn -0.7071 0.7071 0.0000
vn -0.6344 0.7730 0.0000
vn -0.5556 0.8315 0.0000
vn -0.4714 0.8819 0.0000
vn -0.3827 0.9239 0.0000
vn -0.2903 0.9569 0.0000
vn -0.1951 0.9808 0.0000
vn -0.0980 0.9952 0.0000
vn 0.0000 1.0000 0.0000
vn 0.0980 0.9952 0.0000
vn 0.1951 0.9808 0.0000
vn 0.2903 0.9569 0.0000
vn 0.3827 0.9239 0.0000
vn 0.4714 0.8819 0.0000
vn 0.5556 0.8315 0.0000
vn 0.6344 0.7730 0.0000
vn 0.7071 0.7071 0.0000
vn 0.7730 0.6344 0.0000
vn 0.8315 0.5556 0.0000
vn 0.8819 0.4714 0.0000
vn 0.9239 0.3827 0.0000
vn 0.9569 0.2903 0.0000
vn 0.9808 0.1951 0.0000
vn 0.0000 0.0000 1.0000
vn 0.9952 0.0980 0.0000
vn -0.0000 0.0000 -1.0000
s 1
f 1/1/1 2/2/1 4/3/2 3/4/2
f 3/4/2 4/3/2 6/5/3 5/6/3
f 5/6/3 6/5/3 8/7/4 7/8/4
f 7/8/4 8/7/4 10/9/5 9/10/5
f 9/10/5 10/9/5 12/11/6 11/12/6
f 11/12/6 12/11/6 14/13/7 13/14/7
f 13/14/7 14/13/7 16/15/8 15/16/8
f 15/16/8 16/15/8 18/17/9 17/18/9
f 17/18/9 18/17/9 20/19/10 19/20/10
f 19/20/10 20/19/10 22/21/11 21/22/11
f 21/22/11 22/21/11 24/23/12 23/24/12
f 23/24/12 24/23/12 26/25/13 25/26/13
f 25/26/13 26/25/13 28/27/14 27/28/14
f 27/28/14 28/27/14 30/29/15 29/30/15
f 29/30/15 30/29/15 32/31/16 31/32/16
f 31/32/16 32/31/16 34/33/17 33/34/17
f 33/34/17 34/33/17 36/35/18 35/36/18
f 35/36/18 36/35/18 38/37/19 37/38/19
f 37/38/19 38/37/19 40/39/20 39/40/20
f 39/40/20 40/39/20 42/41/21 41/42/21
f 41/42/21 42/41/21 44/43/22 43/44/22
f 43/44/22 44/43/22 46/45/23 45/46/23
f 45/46/23 46/45/23 48/47/24 47/48/24
f 47/48/24 48/47/24 50/49/25 49/50/25
f 49/50/25 50/49/25 52/51/26 51/52/26
f 51/52/26 52/51/26 54/53/27 53/54/27
f 53/54/27 54/53/27 56/55/28 55/56/28
f 55/56/28 56/55/28 58/57/29 57/58/29
f 57/58/29 58/57/29 60/59/30 59/60/30
f 59/60/30 60/59/30 62/61/31 61/62/31
f 61/62/31 62/61/31 64/63/32 63/64/32
f 63/64/32 64/63/32 66/65/33 65/66/33
f 65/66/33 66/65/33 68/67/34 67/68/34
f 67/68/34 68/67/34 70/69/35 69/70/35
f 69/70/35 70/69/35 72/71/36 71/72/36
f 71/72/36 72/71/36 74/73/37 73/74/37
f 73/74/37 74/73/37 76/75/38 75/76/38
f 75/76/38 76/75/38 78/77/39 77/78/39
f 77/78/39 78/77/39 80/79/40 79/80/40
f 79/80/40 80/79/40 82/81/41 81/82/41
f 81/82/41 82/81/41 84/83/42 83/84/42
f 83/84/42 84/83/42 86/85/43 85/86/43
f 85/86/43 86/85/43 88/87/44 87/88/44
f 87/88/44 88/87/44 90/89/45 89/90/45
f 89/90/45 90/89/45 92/91/46 91/92/46
f 91/92/46 92/91/46 94/93/47 93/94/47
f 93/94/47 94/93/47 96/95/48 95/96/48
f 95/96/48 96/95/48 98/97/49 97/98/49
f 97/98/49 98/97/49 100/99/50 99/100/50
f 99/100/50 100/99/50 102/101/51 101/102/51
f 101/102/51 102/101/51 104/103/52 103/104/52
f 103/104/52 104/103/52 106/105/53 105/106/53
f 105/106/53 106/105/53 108/107/54 107/108/54
f 107/108/54 108/107/54 110/109/55 109/110/55
f 109/110/55 110/109/55 112/111/56 111/112/56
f 111/112/56 112/111/56 114/113/57 113/114/57
f 113/114/57 114/113/57 116/115/58 115/116/58
f 115/116/58 116/115/58 118/117/59 117/118/59
f 117/118/59 118/117/59 120/119/60 119/120/60
f 119/120/60 120/119/60 122/121/61 121/122/61
f 121/122/61 122/121/61 124/123/62 123/124/62
f 123/124/62 124/123/62 126/125/63 125/126/63
f 4/127/64 2/128/64 128/129/64 126/130/64 124/131/64 122/132/64 120/133/64 118/134/64 116/135/64 114/136/64 112/137/64 110/138/64 108/139/64 106/140/64 104/141/64 102/142/64 100/143/64 98/144/64 96/145/64 94/146/64 92/147/64 90/148/64 88/149/64 86/150/64 84/151/64 82/152/64 80/153/64 78/154/64 76/155/64 74/156/64 72/157/64 70/158/64 68/159/64 66/160/64 64/161/64 62/162/64 60/163/64 58/164/64 56/165/64 54/166/64 52/167/64 50/168/64 48/169/64 46/170/64 44/171/64 42/172/64 40/173/64 38/174/64 36/175/64 34/176/64 32/177/64 30/178/64 28/179/64 26/180/64 24/181/64 22/182/64 20/183/64 18/184/64 16/185/64 14/186/64 12/187/64 10/188/64 8/189/64 6/190/64
f 125/126/63 126/125/63 128/191/65 127/192/65
f 127/192/65 128/191/65 2/193/1 1/194/1
f 1/195/66 3/196/66 5/197/66 7/198/66 9/199/66 11/200/66 13/201/66 15/202/66 17/203/66 19/204/66 21/205/66 23/206/66 25/207/66 27/208/66 29/209/66 31/210/66 33/211/66 35/212/66 37/213/66 39/214/66 41/215/66 43/216/66 45/217/66 47/218/66 49/219/66 51/220/66 53/221/66 55/222/66 57/223/66 59/224/66 61/225/66 63/226/66 65/227/66 67/228/66 69/229/66 71/230/66 73/231/66 75/232/66 77/233/66 79/234/66 81/235/66 83/236/66 85/237/66 87/238/66 89/239/66 91/240/66 93/241/66 95/242/66 97/243/66 99/244/66 101/245/66 103/246/66 105/247/66 107/248/66 109/249/66 111/250/66 113/251/66 115/252/66 117/253/66 119/254/66 121/255/66 123/256/66 125/257/66 127/258/66
