<svg xmlns="http://www.w3.org/2000/svg" height="16" width="16" viewBox="0 0 16 16">
    <g fill="none" fill-opacity="0.8">
        <path fill="#9aa7b0" d="m 7,1 l -4,4 h 4 z m 1,0 v 5 h -5 v 9 h 3.7 a 5.2,5.2 0 0 1 6.3,-7.9 v -6.1 z" />
    </g>
    <g fill="none" transform="translate(6,7) scale(0.6)">
        <circle fill="#f4af3d" fill-opacity=".6" cx="8" cy="8" r="7"/>

        <path fill="#231f20" fill-opacity=".7" d="m 8,1 a 7,7 0 0 0 -4.95,2.05 h 1.45 a 4.95,7 0 0 1 3.5,-2.05 z"/>
        <path fill="#231f20" fill-opacity=".7" d="m 8,1 v 2.05 h 3.5 a 4.95,7 0 0 0 -3.5,-2.05 z"/>

        <path fill="#231f20" fill-opacity=".7" d="m 4.5,3.05 a 4.95,7 0 0 0 -1.45,4.95 h 4.95 v -4.95 h 3.5 z"/>
        <path fill="#231f20" fill-opacity=".7" d="m 11.5,3.05 a 4.95,7 0 0 1 1.45,4.95 h 2.05 a 7,7 0 0 0 -2.05,-4.95 h -1.45 z"/>

        <path fill="#231f20" fill-opacity=".7" d="m 1,8 a 7,7 0 0 0 2.05,4.95 h 1.45 a 4.95,7 0 0 1 -1.45,-4.95 h 2.05 z"/>
        <path fill="#231f20" fill-opacity=".7" d="m 8,8 v 4.95 h 3.5 a 4.95,7 0 0 0 1.45,-4.95 h -4.95 z"/>

        <path fill="#231f20" fill-opacity=".7" d="m 4.5,12.95 a 4.95,7 0 0 0 3.5,2.05 v -2.05 h -3.5 z"/>
        <path fill="#231f20" fill-opacity=".7" d="m 11.5,12.95 a 4.95,7 0 0 1 -3.5,2.05 a 7,7 0 0 0 4.95,-2.05 h -1.45 z"/>
    </g>
</svg>
