<svg xmlns="http://www.w3.org/2000/svg" height="16" width="16" viewBox="0 0 16 16">
    <defs>
        <radialGradient id="gradient" cx="30%" cy="30%" r="75%" fx="30%" fy="30%">
            <stop offset="0%" style="stop-color:#f0f0f0;stop-opacity:1"/>
            <stop offset="30%" style="stop-color:#f0f0f0;stop-opacity:0"/>
            <stop offset="30%" style="stop-color:#404040;stop-opacity:0"/>
            <stop offset="70%" style="stop-color:#404040;stop-opacity:0.5"/>
            <stop offset="100%" style="stop-color:#404040;stop-opacity:1"/>
        </radialGradient>
    </defs>

    <circle style="fill:#808080;stroke:none" cx="8" cy="8" r="7"/>

    <path style="fill:#c0c0c0;stroke:none" d="m 8,1 a 7,7 0 0 0 -4.95,2.05 h 1.45 a 4.95,7 0 0 1 3.5,-2.05 z"/>
    <path style="fill:#c0c0c0;stroke:none" d="m 8,1 v 2.05 h 3.5 a 4.95,7 0 0 0 -3.5,-2.05 z"/>

    <path style="fill:#c0c0c0;stroke:none" d="m 4.5,3.05 a 4.95,7 0 0 0 -1.45,4.95 h 4.95 v -4.95 h 3.5 z"/>
    <path style="fill:#c0c0c0;stroke:none" d="m 11.5,3.05 a 4.95,7 0 0 1 1.45,4.95 h 2.05 a 7,7 0 0 0 -2.05,-4.95 h -1.45 z"/>

    <path style="fill:#c0c0c0;stroke:none" d="m 1,8 a 7,7 0 0 0 2.05,4.95 h 1.45 a 4.95,7 0 0 1 -1.45,-4.95 h 2.05 z"/>
    <path style="fill:#c0c0c0;stroke:none" d="m 8,8 v 4.95 h 3.5 a 4.95,7 0 0 0 1.45,-4.95 h -4.95 z"/>

    <path style="fill:#c0c0c0;stroke:none" d="m 4.5,12.95 a 4.95,7 0 0 0 3.5,2.05 v -2.05 h -3.5 z"/>
    <path style="fill:#c0c0c0;stroke:none" d="m 11.5,12.95 a 4.95,7 0 0 1 -3.5,2.05 a 7,7 0 0 0 4.95,-2.05 h -1.45 z"/>

    <circle style="fill:url(#gradient);stroke:#404040;stroke-width:0.5px" cx="8" cy="8" r="7"/>
</svg>
