<svg xmlns="http://www.w3.org/2000/svg" height="16" width="16" viewBox="0 0 16 16">
    <path style="fill:#d0d0d0;stroke:none" d="m 8,1 -4.95,2.05 1.45,0 z"/>
    <path style="fill:#e0e0e0;stroke:none" d="m 8,1 -3.5,2.05 3.5,0 z"/>
    <path style="fill:#c0c0c0;stroke:none" d="m 8,1 0,2.05 3.5,0 z"/>
    <path style="fill:#a0a0a0;stroke:none" d="m 8,1 3.5,2.05 1.45,0 z"/>

    <path style="fill:#c0c0c0;stroke:none" d="m 3.05,3.05 -2.05,4.95 2.05,0 1.45,-4.95 z"/>
    <path style="fill:#d0d0d0;stroke:none" d="m 4.5,3.05 -1.45,4.95 4.95,0 0,-4.95 z"/>
    <path style="fill:#b0b0b0;stroke:none" d="m 8,3.05 0,4.95 4.95,0 -1.45,-4.95 z"/>
    <path style="fill:#909090;stroke:none" d="m 11.5,3.05 1.45,4.95 2.05,0 -2.05,-4.95 z"/>

    <path style="fill:#909090;stroke:none" d="m 3.05,12.95 -2.05,-4.95 2.05,0 1.45,4.95 z"/>
    <path style="fill:#a0a0a0;stroke:none" d="m 4.5,12.95 -1.45,-4.95 4.95,0 0,4.95 z"/>
    <path style="fill:#808080;stroke:none" d="m 8,12.95 0,-4.95 4.95,0 -1.45,4.95 z"/>
    <path style="fill:#606060;stroke:none" d="m 11.5,12.95 1.45,-4.95 2.05,0 -2.05,4.95 z"/>

    <path style="fill:#808080;stroke:none" d="m 8,15 -4.95,-2.05 1.45,0 z"/>
    <path style="fill:#909090;stroke:none" d="m 8,15 -3.5,-2.05 3.5,0 z"/>
    <path style="fill:#707070;stroke:none" d="m 8,15 0,-2.05 3.5,0 z"/>
    <path style="fill:#505050;stroke:none" d="m 8,15 3.5,-2.05 1.45,0 z"/>

    <path style="fill:none;stroke:#404040;stroke-width:0.5px" d="m 8,1 -4.95,2.05 -2.05,4.95 2.05,4.95 4.95,2.05 4.95,-2.05 2.05,-4.95 -2.05,-4.95 -4.95,-2.05 z"/>
</svg>
